<svg xmlns="http://www.w3.org/2000/svg" viewBox="0 0 640 420" role="img" aria-labelledby="t"><title id="t">public approval client</title><rect width="640" height="420" rx="32" fill="#EAF1F8"/><circle cx="520" cy="90" r="62" fill="#2D7DD2" opacity=".18"/><rect x="72" y="74" width="210" height="282" rx="18" fill="#fff" stroke="#D8E0EA" stroke-width="3"/><rect x="100" y="112" width="116" height="18" rx="9" fill="#1E3A5F"/><rect x="100" y="156" width="150" height="12" rx="6" fill="#CBD5E1"/><rect x="100" y="186" width="130" height="12" rx="6" fill="#CBD5E1"/><rect x="100" y="246" width="150" height="42" rx="12" fill="#2D7DD2"/><text x="132" y="274" font-family="Arial" font-size="22" font-weight="700" fill="#fff">PDF</text><rect x="332" y="96" width="170" height="220" rx="18" fill="#fff" stroke="#D8E0EA" stroke-width="3"/><rect x="356" y="128" width="80" height="16" rx="8" fill="#1E3A5F"/><rect x="356" y="170" width="120" height="10" rx="5" fill="#CBD5E1"/><rect x="356" y="198" width="104" height="10" rx="5" fill="#CBD5E1"/><circle cx="472" cy="282" r="34" fill="#1F9D6B"/><path d="M456 282l11 11 22-26" fill="none" stroke="#fff" stroke-width="8" stroke-linecap="round" stroke-linejoin="round"/><text x="92" y="220" font-family="Arial" font-size="20" fill="#172033">Aprovação</text><circle cx="555" cy="300" r="34" fill="#1E3A5F"/><circle cx="555" cy="284" r="14" fill="#fff"/><path d="M528 330c8-22 46-22 54 0" fill="#fff"/></svg>